<svg xmlns="http://www.w3.org/2000/symbol">
	<defs>
		<symbol id="title-bg-symbol" viewBox="0 0 46.2 225.81"><polygon points="0 10.58 0 215.23 46.2 225.81 34.2 204.68 34.2 21.17 46.2 0 0 10.58"/></symbol>
		<symbol id="charname-bg-symbol" viewBox="0 0 95.76 23.37"><path d="M0,0V19.57s4.78,3.8,8.18,3.8H95.76l-9.5-9.78,9.5-9.78H8.59C5,3.8,0,0,0,0"/></symbol>
		<symbol id="bg-shape-1-symbol" viewBox="0 0 411.73 224.75"><path d="M411.73,224.75s-40-28.91-40-112.93S411.73,0,411.73,0H0V224.75Z"/></symbol>
		<symbol id="bg-shape-symbol" viewBox="0 0 411.73 224.75"><path d="M351.73,224.75c32.9,0,36.9-111.83,60-111.83-23.1,0-27.1-112.93-60-112.93H0V224.75Z"/></symbol>
		<symbol id="bg-shape-symbol" viewBox="0 0 411.73 224.75"><path d="M2,224.75h361.9s47.8-36.87,47.8-69.56-47.8-46.25-47.8-82.27S401.73,0,401.73,0H0V223.83Z"/></symbol>
		<symbol id="bg-shape-symbol" viewBox="0 0 411.73 224.75"><polygon points="411.73 224.75 401.73 111.83 411.73 0 0 0 0 224.75 411.73 224.75"/></symbol>
		<symbol id="bg-shape-symbol" viewBox="0 0 411.73 224.75"><polygon points="361.73 224.75 411.73 112.93 361.73 0 0 0 0 224.75 361.73 224.75"/></symbol>
		<symbol id="bg-shape-symbol" viewBox="0 0 411.73 224.75"><path d="M371.73,224.75s40-27.15,40-112.93S371.73,0,371.73,0H0V224.75Z"/></symbol>
		<symbol id="bg-shape-symbol" viewBox="0 0 411.73 224.8"><polygon points="411.73 0.54 362.77 0 362.77 0.04 0.87 0.04 0 0.4 0 224.4 0.87 224.8 362.77 224.8 362.77 224.08 411.73 224.29 362.77 202.54 362.77 200.9 411.69 179.56 362.77 157.78 362.77 156.14 411.69 134.8 362.77 113.03 362.77 112.97 362.77 111.38 411.69 90.04 362.77 68.27 362.77 66.62 411.69 45.28 362.77 23.51 362.77 21.86 411.73 0.54"/></symbol>
		<symbol id="bg-shape-symbol" viewBox="0 0 411.73 224.75"><polygon points="411.73 224.75 351.73 111.83 411.73 0 0 0 0 224.75 411.73 224.75"/></symbol>
	</defs>
</svg>
